<?xml version="1.0" encoding="UTF-8" standalone="no"?>
<!-- Created with Inkscape (http://www.inkscape.org/) -->

<svg
   version="1.1"
   id="svg9"
   width="792.89856"
   height="238.20506"
   viewBox="0 0 792.89855 238.20506"
   sodipodi:docname="Carregando ... (1).png"
   xmlns:inkscape="http://www.inkscape.org/namespaces/inkscape"
   xmlns:sodipodi="http://sodipodi.sourceforge.net/DTD/sodipodi-0.dtd"
   xmlns="http://www.w3.org/2000/svg"
   xmlns:svg="http://www.w3.org/2000/svg">
  <defs
     id="defs13" />
  <sodipodi:namedview
     id="namedview11"
     pagecolor="#505050"
     bordercolor="#eeeeee"
     borderopacity="1"
     inkscape:showpageshadow="0"
     inkscape:pageopacity="0"
     inkscape:pagecheckerboard="0"
     inkscape:deskcolor="#505050"
     showgrid="false" />
  <g
     inkscape:groupmode="layer"
     inkscape:label="Image"
     id="g15"
     transform="translate(-1.1183337,-233.73174)">
    <path
       style="fill:#6a6766;stroke:none;stroke-width:0.561404"
       d="m 1.1183332,233.0585 v 8.42105 c 10.4622598,0.22288 7.85965,10.87214 7.85965,18.52632 0,2.92716 0.82021,7.54526 -1.411313,9.86161 -1.634346,1.69713 -4.305049,1.36478 -6.448337,1.36646 v 14.59649 H 93.74991 V 419.44446 H 1.1183332 v 16.28071 c 2.799029,0 6.148323,-0.47327 8.242583,1.81221 3.3966588,3.7075 1.3034668,15.26007 1.3012768,20.08252 -9.54e-4,2.1019 0.230007,4.37614 -1.3012768,6.04744 -2.09426,2.28547 -5.443565,1.81221 -8.242583,1.81221 v 7.29825 H 794.94291 v -7.29825 c -2.57123,-0.007 -5.23789,0.0533 -6.88281,-2.30681 -1.79649,-2.58189 -0.97684,-7.05852 -0.97684,-10.04407 0,-7.52842 -2.3186,-17.37431 7.85965,-17.4035 V 419.44446 H 706.24115 V 285.83043 h 88.70176 v -14.59649 c -2.56,0 -6.18667,0.62484 -8.17965,-1.36646 -2.32982,-2.33263 -1.36421,-7.41894 -1.36421,-10.42301 0,-9.16099 -2.17263,-17.95706 9.54386,-17.96492 V 233.0585 H 1.1183332 m 23.5793968,8.60576 c 4.086176,-0.74218 14.296927,-1.64548 16.98633,2.13614 3.026807,4.256 1.491481,17.81277 0.917053,22.94231 -0.228379,2.03958 -1.225881,3.77207 -3.315986,4.3127 -3.486821,0.90274 -16.284015,1.65783 -18.339201,-1.6988 -1.196968,-1.95537 -0.739873,-4.91902 -0.739873,-7.10513 0,-5.47649 -2.726625,-19.27522 4.491677,-20.58722 m 33.124604,0.008 c 3.780492,-0.78597 15.176983,-1.71116 17.385545,2.12772 2.73628,4.75508 0.651228,16.3548 0.574877,21.8195 -0.03144,2.26471 -0.25993,4.74836 -2.829474,5.43551 -3.410526,0.91228 -16.399551,1.63986 -18.401123,-1.63368 -1.106639,-1.80997 -0.661895,-4.58386 -0.661895,-6.60884 0,-5.10428 -2.647018,-19.77207 3.93207,-21.14021 m 33.682526,0 c 3.76758,-0.77755 15.07256,-1.68534 17.30245,2.13333 2.80197,4.79888 0.73657,16.30091 0.65965,21.81389 -0.032,2.29502 -0.28126,4.62709 -2.82947,5.37039 -3.49474,1.02007 -16.36659,1.69937 -18.53642,-1.52365 -1.26259,-1.87621 -1.08463,-4.50302 -1.088,-6.65375 -0.008,-5.32155 -1.17445,-12.27565 0.32169,-17.4007 0.59789,-2.04969 2.10245,-3.31285 4.1701,-3.73951 m 33.68421,-0.008 c 4.08589,-0.74218 14.2967,-1.64604 16.98639,2.13614 3.02652,4.256 1.49108,17.81221 0.91677,22.94231 -0.22849,2.03958 -1.22555,3.77207 -3.31565,4.3127 -3.7659,0.9746 -16.352,1.67186 -18.41741,-2.10021 -1.12673,-2.05698 -0.66189,-5.00659 -0.66189,-7.26512 0,-5.41867 -2.66611,-18.72449 4.49179,-20.02582 m 33.12449,0.008 c 3.78049,-0.78597 15.17698,-1.71116 17.38555,2.12772 2.75424,4.78596 0.61473,16.32112 0.57656,21.8195 -0.0157,2.32983 -0.15663,4.73825 -2.81713,5.43551 -3.42512,0.89769 -16.40533,1.65334 -18.41515,-1.63368 -1.10653,-1.80997 -0.6619,-4.58386 -0.6619,-6.60884 0,-5.10428 -2.64702,-19.77207 3.93207,-21.14021 m 33.68253,0 c 3.76758,-0.77811 15.07312,-1.68534 17.30246,2.13333 2.80196,4.79888 0.73656,16.30091 0.65964,21.81389 -0.032,2.29502 -0.28126,4.62709 -2.82947,5.37039 -3.49474,1.02007 -16.3666,1.69937 -18.53642,-1.52365 -1.35972,-2.01993 -1.08688,-4.90667 -1.088,-7.21516 -0.002,-5.31705 -2.57011,-19.12084 4.49179,-20.5788 m 33.68421,-0.008 c 3.90007,-0.7085 14.79018,-1.72295 17.14639,2.18722 2.80308,4.65123 1.35635,17.53769 0.75677,22.89123 -0.22849,2.03958 -1.22555,3.77207 -3.31565,4.3127 -3.7659,0.9746 -16.352,1.67186 -18.4174,-2.10021 -1.12674,-2.05698 -0.6619,-5.00659 -0.6619,-7.26512 0,-5.41867 -2.6661,-18.72449 4.49179,-20.02582 m 33.68421,-0.0135 c 3.81249,-0.6181 14.58976,-1.73698 16.82583,2.14962 2.75424,4.78596 0.61473,16.32112 0.57656,21.8195 -0.0157,2.32983 -0.15663,4.73825 -2.81713,5.43551 -3.42512,0.89769 -16.40533,1.65334 -18.41515,-1.63368 -1.1812,-1.93235 -0.6619,-5.0066 -0.6619,-7.17025 0,-5.47929 -2.75368,-19.42624 4.49179,-20.6007 m 33.12281,0.0219 c 3.76758,-0.77811 15.07312,-1.68534 17.30246,2.13333 2.80196,4.79888 0.73656,16.30091 0.65964,21.81389 -0.032,2.29502 -0.28126,4.62709 -2.82947,5.37039 -3.33137,0.97235 -16.56926,1.71397 -18.48589,-1.52365 -1.06499,-1.79817 -0.57713,-4.65123 -0.57713,-6.65375 0,-5.16323 -2.67172,-19.77713 3.93039,-21.14021 m 33.68589,-0.008 c 3.85067,-0.70457 14.92885,-1.72351 17.22274,2.18722 2.73404,4.66078 1.27607,17.5579 0.67874,22.89123 -0.22849,2.03958 -1.22554,3.77207 -3.31565,4.3127 -3.7659,0.9746 -16.35144,1.67186 -18.4174,-2.10021 -1.12674,-2.05698 -0.6619,-5.00659 -0.6619,-7.26512 0,-5.36646 -2.64421,-18.71888 4.49347,-20.02582 m 33.68253,-0.0135 c 4.00674,-0.64954 14.35734,-1.70105 16.87635,2.14962 3.03214,4.63438 1.44337,16.42835 1.03748,21.8195 -0.17348,2.30064 -0.82246,4.77979 -3.32856,5.43551 -3.42625,0.89656 -16.40478,1.6539 -18.41516,-1.63368 -1.1812,-1.93235 -0.6619,-5.0066 -0.6619,-7.17025 0,-5.47929 -2.75368,-19.42624 4.49179,-20.6007 m 33.12281,0.0219 c 3.08547,-0.63327 9.9593,-1.02513 11.77319,2.12772 1.96435,3.41333 0.57713,10.65038 0.57713,14.52126 0,3.48238 1.55733,11.38807 -2.83172,12.66863 -2.80028,0.8174 -11.1972,1.3047 -12.87186,-1.52365 -1.98288,-3.34877 -0.57713,-10.69081 -0.57713,-14.5134 0,-4.30372 -1.7207,-12.1207 3.93039,-13.28056 m 28.07018,0 c 3.82933,-0.79046 14.98105,-1.67299 17.30245,2.1788 2.82218,4.68211 0.73544,16.34358 0.65965,21.76842 -0.032,2.29502 -0.28126,4.62709 -2.82947,5.37039 -3.55313,1.03691 -16.31383,1.69375 -18.58134,-1.52365 -1.41136,-2.00253 -1.04308,-4.90442 -1.04308,-7.21516 -5.7e-4,-5.37151 -2.62064,-19.11073 4.49179,-20.5788 m 33.68421,-0.008 c 4.08589,-0.74218 14.2967,-1.64548 16.98638,2.13614 3.02653,4.256 1.49165,17.81221 0.91678,22.94231 -0.2285,2.03958 -1.22555,3.77207 -3.31565,4.3127 -3.7659,0.9746 -16.35144,1.67186 -18.41741,-2.10021 -1.12673,-2.05698 -0.66189,-5.00659 -0.66189,-7.26512 0,-5.41867 -2.66611,-18.72449 4.49179,-20.02582 m 33.12449,0.008 c 3.78049,-0.78597 15.17698,-1.71116 17.38554,2.12772 2.75425,4.78596 0.61474,16.32112 0.57656,21.8195 -0.0157,2.32983 -0.15607,4.73825 -2.81712,5.43551 -3.42512,0.89769 -16.40533,1.65334 -18.41516,-1.63368 -1.10652,-1.81053 -0.66189,-4.58386 -0.66189,-6.60884 0,-5.10428 -2.64702,-19.77207 3.93207,-21.14021 m 33.68253,0 c 3.82877,-0.79046 14.98161,-1.67299 17.30245,2.1788 2.82218,4.68211 0.73544,16.34358 0.65965,21.76842 -0.032,2.29502 -0.28126,4.62709 -2.82947,5.37039 -3.33137,0.97235 -16.56927,1.71397 -18.4859,-1.52365 -1.06498,-1.79817 -0.57712,-4.65123 -0.57712,-6.65375 0,-5.16323 -2.67172,-19.77713 3.93039,-21.14021 m 33.68421,-0.008 c 4.08589,-0.74218 14.29838,-1.64548 16.98751,2.13614 3.02596,4.256 1.48772,17.81221 0.91508,22.94231 -0.23017,2.03958 -1.22386,3.77207 -3.31789,4.3127 -3.7614,0.9746 -16.34863,1.67186 -18.4146,-2.10021 -1.12673,-2.05698 -0.66189,-5.00659 -0.66189,-7.26512 0,-5.41867 -2.66611,-18.72449 4.49179,-20.02582 m 33.68365,-0.0135 c 3.81193,-0.6181 14.59087,-1.73698 16.82526,2.14962 2.75649,4.78596 0.61754,16.32112 0.57825,21.8195 -0.0168,2.32983 -0.1572,4.73825 -2.81825,5.43551 -3.42456,0.89769 -16.40421,1.65334 -18.41403,-1.63368 -1.18457,-1.93235 -0.66246,-5.0066 -0.66246,-7.17025 0,-5.47929 -2.75088,-19.42624 4.49123,-20.6007 m 33.12281,0.0219 c 3.76701,-0.77811 15.07368,-1.68534 17.30245,2.13333 2.80141,4.79888 0.73544,16.30091 0.66246,21.81389 -0.0337,2.29502 -0.2807,4.62709 -2.82948,5.37039 -3.33473,0.97235 -16.57263,1.71397 -18.48701,-1.52365 -1.06667,-1.79817 -0.57825,-4.65123 -0.57825,-6.65375 0,-5.16323 -2.67228,-19.77713 3.92983,-21.14021 m 33.68421,-0.008 c 4.08701,-0.74218 14.29894,-1.64548 16.98807,2.13614 3.02596,4.256 1.48772,17.81277 0.91508,22.94231 -0.23017,2.03958 -1.22385,3.77207 -3.31789,4.3127 -3.7614,0.9746 -16.34807,1.67186 -18.41404,-2.10021 -1.12842,-2.05698 -0.66245,-5.00659 -0.66245,-7.26512 0,-5.41867 -2.66667,-18.72449 4.49123,-20.02582 m 33.68421,-0.0135 c 3.81193,-0.6181 14.59088,-1.73698 16.82526,2.14962 2.75649,4.78596 0.61755,16.32112 0.57825,21.8195 -0.0168,2.32983 -0.1572,4.73825 -2.81825,5.43551 -3.42456,0.89769 -16.40421,1.65334 -18.41403,-1.63368 -1.18457,-1.93235 -0.66246,-5.0066 -0.66246,-7.17025 0,-5.47929 -2.75088,-19.42624 4.49123,-20.6007 m 33.12281,0.0219 c 3.76701,-0.77811 15.07368,-1.68534 17.30245,2.13333 2.80141,4.79888 0.73544,16.30091 0.66246,21.81389 -0.0337,2.29502 -0.2807,4.62709 -2.82948,5.37039 -3.33473,0.97235 -16.57263,1.71397 -18.48701,-1.52365 -1.06667,-1.79817 -0.57825,-4.65123 -0.57825,-6.65375 0,-5.16323 -2.67228,-19.77713 3.92983,-21.14021 m 33.68421,0 c 3.8007,-0.78372 14.9614,-1.67916 17.22386,2.1788 2.73403,4.66078 1.28,17.5579 0.6793,22.89123 -0.23018,2.03958 -1.22386,3.77207 -3.3179,4.3127 -3.59298,0.93137 -15.76421,1.60393 -18.09965,-1.58877 -1.43158,-1.95874 -0.97684,-4.93474 -0.97684,-7.21516 0,-5.43158 -2.66105,-19.104 4.49123,-20.5788 M 290.80255,285.83043 V 419.44446 H 112.27623 V 285.83043 h 178.52632 m 199.29825,0 V 419.44446 H 309.89027 V 285.83043 H 490.1008 m 197.61404,0 V 419.44446 H 509.18852 V 285.83043 H 687.71484 M 25.26907,435.96881 c 3.751972,-1.06779 16.284183,-1.72294 18.415439,2.06316 2.656899,4.71972 1.203706,17.58934 0.600814,22.95579 -0.230343,2.05025 -1.254512,3.66597 -3.315986,4.24814 -3.580014,1.01109 -15.682919,1.66456 -18.035986,-1.56856 -3.154302,-4.33404 -1.448084,-17.65109 -0.99026,-22.88954 0.192225,-2.19902 1.046906,-4.16056 3.325979,-4.80899 m 33.682247,0 c 3.524491,-0.99536 15.654737,-1.67017 17.905965,1.56857 2.093478,3.0108 1.173334,8.19705 1.173334,11.66147 0,4.10835 1.859934,14.50723 -3.393123,16.03705 -3.60365,1.04983 -15.663159,1.63537 -18.084885,-1.56856 -1.988604,-2.63186 -0.978133,-7.98035 -0.978133,-11.10007 0,-4.30989 -2.058274,-15.06358 3.376842,-16.59846 m 33.678593,0 c 3.7019,-1.03242 15.8299,-1.69656 17.94639,2.06316 1.57193,2.79242 0.57712,8.04267 0.57712,11.16688 0,4.2953 2.02891,14.53193 -3.37123,16.03705 -3.70189,1.03242 -15.82989,1.69656 -17.94638,-2.06316 -1.57193,-2.79242 -0.57712,-8.04266 -0.57712,-11.16687 0,-4.2953 -2.02892,-14.53193 3.37122,-16.03706 m 33.13067,0 c 3.74961,-1.07059 16.28519,-1.7207 18.41516,2.06316 2.65712,4.71972 1.20365,17.58934 0.6007,22.95579 -0.23018,2.05025 -1.25418,3.66597 -3.31565,4.24814 -3.52449,0.99537 -15.65474,1.67018 -17.90597,-1.56856 -2.09291,-3.01081 -1.17333,-8.19705 -1.17333,-11.66147 0,-4.13025 -1.88295,-14.5353 3.37909,-16.03706 m 33.68196,0 c 3.58007,-1.01108 15.68337,-1.66456 18.03622,1.56857 3.15452,4.33403 1.44785,17.65108 0.99031,22.88954 -0.192,2.19902 -1.04702,4.16056 -3.32631,4.80898 -3.75186,1.06779 -16.28408,1.72295 -18.41516,-2.06316 -2.65713,-4.71972 -1.20365,-17.58933 -0.6007,-22.95579 0.23017,-2.05024 1.25417,-3.66596 3.31564,-4.24814 m 33.6786,0 c 3.7019,-1.03242 15.8299,-1.69656 17.94639,2.06316 1.57193,2.79242 0.57712,8.04267 0.57712,11.16688 0,4.2953 2.02891,14.53193 -3.37123,16.03705 -3.70189,1.03242 -15.82989,1.69656 -17.94638,-2.06316 -1.57193,-2.79242 -0.57713,-8.04266 -0.57713,-11.16687 0,-4.2953 -2.02891,-14.53193 3.37123,-16.03706 m 33.1447,0 c 3.60365,-1.04982 15.66316,-1.63536 18.08506,1.56857 1.98849,2.63186 0.97796,7.98035 0.97796,11.10007 0,4.30989 2.05811,15.06357 -3.37684,16.59845 -3.46274,0.97797 -15.73614,1.6814 -17.89811,-1.56856 -1.82343,-2.74189 -0.61979,-8.46821 -0.61979,-11.66147 0,-3.96744 -2.0974,-14.60155 2.83172,-16.03706 m 33.66793,0 c 3.58007,-1.01108 15.68337,-1.66456 18.03622,1.56857 3.15452,4.33403 1.44786,17.65108 0.99031,22.88954 -0.192,2.19902 -1.04702,4.16056 -3.32631,4.80898 -3.75186,1.06779 -16.28408,1.72295 -18.41516,-2.06316 -2.65713,-4.71972 -1.20365,-17.58933 -0.6007,-22.95579 0.23017,-2.05024 1.25417,-3.66596 3.31564,-4.24814 m 33.6786,0 c 3.36449,-0.9381 15.8619,-1.70161 17.86162,1.56857 1.72912,2.82778 0.66189,8.44968 0.66189,11.66147 0,3.86077 1.94751,14.64253 -2.83172,16.03705 -3.7221,1.08632 -16.36435,1.70555 -18.48589,-2.06316 -1.04085,-1.8487 -0.57713,-4.63494 -0.57713,-6.67565 0,-5.42428 -0.76182,-11.48238 0.0831,-16.83985 0.29586,-1.87622 1.44786,-3.17586 3.28814,-3.68843 m 33.1447,0 c 3.72323,-1.08463 16.36379,-1.70666 18.4859,2.06316 1.04084,1.8487 0.57712,4.63495 0.57712,6.67565 0,5.42428 0.76183,11.48239 -0.0831,16.83986 -0.29585,1.87621 -1.44785,3.17586 -3.28814,3.68842 -3.47172,0.96786 -15.73614,1.68983 -17.90372,-1.56856 -1.76449,-2.65263 -0.61978,-8.02133 -0.61978,-11.10007 0,-4.02639 -2.14457,-15.14891 2.83171,-16.59846 m 33.66794,0 c 3.75747,-1.06105 16.28294,-1.72856 18.4174,2.06316 2.65712,4.71972 1.20365,17.58934 0.6007,22.95579 -0.23017,2.05025 -1.25417,3.66597 -3.31565,4.24814 -3.58007,1.01109 -15.68337,1.66456 -18.03621,-1.56856 -1.42821,-1.96267 -1.04309,-4.88814 -1.04309,-7.17025 -5.6e-4,-5.33277 -0.53445,-10.98105 0.0612,-16.28014 0.23017,-2.05024 1.25417,-3.66596 3.31565,-4.24814 m 33.67859,0 c 1.42204,-0.39635 3.02821,-0.24308 4.48842,-0.24364 10.76772,-0.004 8.98246,7.58849 8.98246,16.2807 0,3.75747 1.41418,11.82989 -3.39312,13.23003 -1.40463,0.40926 -3.02092,0.24309 -4.46653,0.24365 -10.99958,0.004 -8.98246,-7.41782 -8.98246,-16.2807 0,-3.96351 -1.64884,-11.83102 3.37123,-13.23004 m 28.07018,0 c 3.70189,-1.03242 15.82989,-1.69656 17.94638,2.06316 1.57193,2.79242 0.57713,8.04267 0.57713,11.16688 0,4.2953 2.02891,14.53193 -3.37123,16.03705 -3.7019,1.03242 -15.8299,1.69656 -17.94639,-2.06316 -1.57193,-2.79242 -0.57712,-8.04266 -0.57712,-11.16687 0,-4.2953 -2.02891,-14.53193 3.37123,-16.03706 m 33.1447,0 c 3.60365,-1.04982 15.66316,-1.63536 18.08505,1.56857 1.9885,2.63186 0.97797,7.98035 0.97797,11.10007 0,4.30989 2.0581,15.06357 -3.37684,16.59845 -3.52449,0.99537 -15.65474,1.67018 -17.90653,-1.56856 -2.09291,-3.01081 -1.17277,-8.19705 -1.17277,-11.66147 0,-4.10835 -1.85993,-14.50723 3.39312,-16.03706 m 33.66793,0 c 3.58007,-1.01108 15.68337,-1.66456 18.03621,1.56857 3.15453,4.33403 1.44786,17.65108 0.99032,22.88954 -0.192,2.19902 -1.04702,4.16056 -3.32576,4.80898 -3.75242,1.06779 -16.28463,1.72295 -18.41572,-2.06316 -2.65712,-4.71972 -1.20364,-17.58933 -0.6007,-22.95579 0.23018,-2.05024 1.25418,-3.66596 3.31565,-4.24814 m 33.6786,0 c 3.70189,-1.03242 15.82989,-1.69656 17.94639,2.06316 1.57193,2.79242 0.57712,8.04267 0.57712,11.16688 0,4.2953 2.02891,14.53193 -3.37123,16.03705 -3.70189,1.03242 -15.8299,1.69656 -17.94639,-2.06316 -1.57193,-2.79242 -0.57712,-8.04266 -0.57712,-11.16687 0,-4.2953 -2.02891,-14.53193 3.37123,-16.03706 m 33.1447,0 c 3.60365,-1.04982 15.66091,-1.63536 18.08618,1.56857 1.98737,2.63186 0.97684,7.98035 0.97684,11.10007 0,4.30989 2.06035,15.06357 -3.37965,16.59845 -3.52,0.99537 -15.65193,1.67018 -17.90372,-1.56856 -2.09291,-3.01081 -1.17277,-8.19705 -1.17277,-11.66147 0,-4.10835 -1.85993,-14.50723 3.39312,-16.03706 m 33.67074,0 c 3.57614,-1.01108 15.68,-1.664 18.03228,1.56857 3.15509,4.33403 1.44842,17.65108 0.99368,22.88954 -0.19649,2.19902 -1.04982,4.16056 -3.32912,4.80898 -3.75017,1.06779 -16.2807,1.72295 -18.41403,-2.06316 -2.65544,-4.71972 -1.20702,-17.58933 -0.60071,-22.95579 0.23018,-2.05024 1.25193,-3.66596 3.3179,-4.24814 m 33.67298,0 c 3.36842,-0.9381 15.86527,-1.70161 17.86386,1.56857 1.72913,2.82778 0.66246,8.44968 0.66246,11.66147 0,3.92758 1.94245,14.4494 -2.85755,15.95902 -3.70526,1.16435 -16.33122,1.79986 -18.45894,-1.98513 -1.57193,-2.79242 -0.57825,-8.04266 -0.57825,-11.16687 0,-4.2953 -2.02667,-14.53193 3.36842,-16.03706 m 33.14527,0 c 3.60421,-1.04982 15.66315,-1.63536 18.08842,1.56857 1.98737,2.63186 0.97684,7.98035 0.97684,11.10007 0,4.30989 2.06035,15.06357 -3.37965,16.59845 -3.52,0.99537 -15.65193,1.67018 -17.90316,-1.56856 -2.09403,-3.01081 -1.17333,-8.19705 -1.17333,-11.66147 0,-4.10835 -1.85825,-14.50723 3.39088,-16.03706 m 33.67298,0 c 3.75579,-1.06105 16.2807,-1.72856 18.41403,2.06316 2.65544,4.71972 1.20702,17.58934 0.60071,22.95579 -0.23018,2.05025 -1.25193,3.66597 -3.3179,4.24814 -3.75579,1.06105 -16.2807,1.72856 -18.41403,-2.06316 -2.65544,-4.71972 -1.20702,-17.58933 -0.60071,-22.95579 0.23018,-2.05024 1.25193,-3.66596 3.3179,-4.24814 m 33.67298,0 c 3.36842,-0.9381 15.86527,-1.70161 17.86386,1.56857 1.72913,2.82778 0.66246,8.44968 0.66246,11.66147 0,3.92533 1.95368,14.49431 -2.82947,15.95902 -3.72772,1.14021 -16.34246,1.82175 -18.48702,-1.98513 -1.51018,-2.67845 -0.57825,-7.61375 -0.57825,-10.60547 0,-4.35818 -2.09403,-15.07537 3.36842,-16.59846 m 33.14527,0 c 3.7221,-1.08631 16.36491,-1.70554 18.48701,2.06316 1.04422,1.8487 0.57825,4.63495 0.57825,6.67565 0,5.42428 0.76351,11.48295 -0.0842,16.83986 -0.29754,1.87621 -1.44842,3.17586 -3.28421,3.68842 -3.36842,0.93811 -15.86526,1.70162 -17.86386,-1.56856 -1.72912,-2.82779 -0.66246,-8.44968 -0.66246,-11.66147 0,-3.86078 -1.94807,-14.64253 2.82948,-16.03706 z"
       id="path12170" />
    <path
       style="fill:#999999;fill-opacity:1;stroke-width:1.11833"
       d="m 1.1183337,469.14098 c 0,-2.23667 0.5591668,-2.79584 2.7958342,-2.79584 5.1772372,0 7.2555171,-3.53932 7.3876711,-12.58125 0.186962,-12.79206 -0.101232,-14.69233 -2.5440851,-16.77501 -1.2625463,-1.07639 -3.497912,-1.95708 -4.9674795,-1.95708 -2.5429867,0 -2.6719407,-0.35083 -2.6719407,-7.26917 v -7.26917 H 47.529181 93.940029 V 352.83427 285.17509 H 47.529181 1.1183337 v -6.71001 c 0,-6.31962 0.154689,-6.71 2.6589001,-6.71 4.1831836,0 5.5070513,-2.75094 5.9802637,-12.42674 C 10.320912,247.80817 8.773775,242.81158 4.3705972,241.93094 1.5507085,241.36696 1.1183337,240.7787 1.1183337,237.50611 v -3.77437 H 397.56762 794.01691 v 3.91417 c 0,3.16861 -0.42603,3.91416 -2.23667,3.91416 -1.23017,0 -3.24317,1.0065 -4.47333,2.23667 -1.9517,1.95169 -2.23667,3.72778 -2.23667,13.93982 0,10.42601 0.23606,11.8295 2.16315,12.86084 1.18972,0.63673 3.20273,1.15768 4.47333,1.15768 2.07801,0 2.31019,0.67438 2.31019,6.71 v 6.71001 h -44.18292 -44.1829 l 0.28831,67.3796 0.28831,67.3796 43.8946,0.29257 43.8946,0.29256 v 7.07668 c 0,6.47824 -0.23833,7.18527 -2.81829,8.36077 -3.7868,1.72539 -5.01005,5.45876 -5.01005,15.29077 0,10.05031 1.17431,13.47006 4.95094,14.41793 2.12372,0.53303 2.8774,1.44893 2.8774,3.49671 v 2.77453 H 397.56762 1.1183337 Z M 42.35347,464.38806 c 1.879033,-1.57071 2.484244,-3.74318 3.065578,-11.0042 0.8542,-10.6692 -0.62677,-16.65659 -4.368094,-17.65969 -1.357643,-0.36401 -5.535759,-0.66871 -9.284699,-0.67711 -9.703726,-0.0217 -10.504849,1.14168 -10.755598,15.61946 -0.186758,10.78302 -0.03801,11.63245 2.379797,13.59027 3.532669,2.86058 15.598044,2.9441 18.963016,0.13127 z m 34.850398,-0.30414 c 0.574881,-0.90912 1.052945,-7.02694 1.062364,-13.59515 0.02148,-14.98051 -0.340461,-15.45697 -11.741846,-15.45697 -10.960751,0 -11.726036,1.03805 -11.726036,15.90551 0,9.62362 0.282091,11.21659 2.353025,13.28753 2.062395,2.06238 3.381537,2.30108 10.680138,1.93252 5.769926,-0.29137 8.648099,-0.9281 9.372355,-2.07344 z m 32.392832,0.0246 c 1.9511,-1.9511 2.23667,-3.72777 2.23667,-13.91576 0,-14.25062 -0.74974,-15.16091 -12.487095,-15.16091 -10.10508,0 -10.997915,1.27389 -10.997915,15.69176 0,14.26901 0.894036,15.37283 12.58125,15.53329 5.01757,0.0689 6.92185,-0.40314 8.66709,-2.14838 z m 33.50222,0.26357 c 2.19019,-1.7735 2.45726,-3.14047 2.64015,-13.5133 0.19217,-10.89897 0.0568,-11.65933 -2.43667,-13.68358 -2.00308,-1.62617 -4.41052,-2.14336 -9.97694,-2.14336 -10.81405,0 -11.42709,0.84584 -11.42709,15.76658 0,11.1998 0.17823,12.18977 2.48551,13.80585 3.57895,2.50679 15.51544,2.3587 18.71504,-0.23219 z m 33.23085,0.31491 c 1.93087,-1.35243 2.51229,-3.29495 3.15317,-10.5348 1.44899,-16.36908 -0.30629,-19.12035 -12.19861,-19.12035 -11.26975,0 -11.98434,0.91681 -12.21644,15.67365 -0.16823,10.69648 -0.0244,11.4854 2.46146,13.50003 3.33175,2.70016 15.19891,3.00408 18.80042,0.48147 z m 33.91696,-0.57848 c 1.93844,-1.93844 2.23667,-3.72777 2.23667,-13.42 0,-14.42303 -0.9643,-15.65667 -12.23826,-15.65667 -10.48113,0 -11.24675,1.11651 -11.24675,16.40126 0,10.54394 0.19273,11.56524 2.48551,13.17117 3.84187,2.69095 15.89458,2.37249 18.76283,-0.49576 z m 33.55001,0 c 1.9511,-1.9511 2.23667,-3.72777 2.23667,-13.91576 0,-14.25062 -0.74974,-15.16091 -12.48709,-15.16091 -10.19836,0 -10.99792,1.19239 -10.99792,16.40126 0,10.54394 0.19273,11.56524 2.48551,13.17117 3.84187,2.69095 15.89458,2.37249 18.76283,-0.49576 z m 33.4607,0.27959 c 2.13314,-1.74299 2.42195,-3.22174 2.64015,-13.51788 0.23197,-10.94609 0.10457,-11.67452 -2.39514,-13.69959 -2.01588,-1.63307 -4.42091,-2.13879 -10.17127,-2.13879 -10.67932,0 -11.56273,1.19067 -11.69196,15.75836 -0.0936,10.55535 0.0677,11.40719 2.54016,13.41307 3.58819,2.91105 15.59923,3.02741 19.07806,0.18483 z m 33.14599,0.37127 c 1.84983,-1.35131 2.22783,-3.25822 2.5563,-12.89554 0.52887,-15.51735 -0.348,-16.83199 -11.22694,-16.83199 -11.55907,0 -12.08437,0.68537 -12.08437,15.76658 0,11.1998 0.17823,12.18977 2.48551,13.80585 3.21694,2.25323 15.25741,2.35546 18.2695,0.1551 z m 34.04334,-0.65086 c 1.93844,-1.93844 2.23667,-3.72777 2.23667,-13.42 0,-14.41859 -0.96647,-15.65667 -12.22179,-15.65667 -10.83935,0 -11.26741,0.58834 -11.2461,15.45697 0.009,6.56821 0.38686,12.49581 0.83875,13.17244 1.30111,1.94815 3.67975,2.50107 11.16622,2.59564 5.57519,0.0704 7.44218,-0.36431 9.22625,-2.14838 z m 33.55001,0 c 1.64664,-1.64663 2.29486,-3.93302 2.45726,-8.66708 0.63392,-18.47974 -0.5543,-20.40959 -12.56628,-20.40959 -10.69896,0 -11.14347,0.61776 -11.1222,15.45697 0.009,6.56821 0.38686,12.49581 0.83875,13.17244 1.30111,1.94815 3.67975,2.50107 11.16622,2.59564 5.57519,0.0704 7.44218,-0.36431 9.22625,-2.14838 z m 27.95834,0 c 1.91905,-1.91905 2.23667,-3.72777 2.23667,-12.73694 0,-12.77065 -1.34355,-15.14337 -9.06789,-16.01402 -7.85485,-0.88535 -8.82545,0.72894 -8.82545,14.67835 0,9.54714 0.33083,11.77749 1.95709,13.19419 4.23336,3.68787 10.48903,4.08898 13.69958,0.87842 z m 33.05668,0.65023 c 1.87184,-1.36795 2.214,-3.21169 2.48426,-13.38618 0.39985,-15.0535 -0.52089,-16.34072 -11.68829,-16.34072 -10.9544,0 -11.55098,0.81429 -11.55098,15.76658 0,11.1998 0.17823,12.18977 2.48551,13.80585 3.21758,2.25368 15.25773,2.35548 18.2695,0.15447 z m 33.55001,9e-4 c 1.86187,-1.35987 2.2247,-3.25578 2.54937,-13.32105 0.34484,-10.69084 0.17062,-11.94343 -1.95709,-14.07113 -1.91123,-1.91124 -3.71919,-2.33562 -9.9502,-2.33562 -11.49033,0 -12.02075,0.67013 -11.65955,14.73081 0.33941,13.21256 0.74958,15.12662 3.39043,15.82175 4.56098,1.20057 15.55861,0.68599 17.62704,-0.82476 z m 34.04334,-0.65113 c 1.93845,-1.93844 2.23667,-3.72777 2.23667,-13.42 0,-14.37155 -0.99394,-15.66457 -12.02209,-15.63955 -4.15181,0.009 -8.2142,0.43906 -9.02754,0.95473 -2.00326,1.27015 -3.49794,8.23428 -3.51176,16.36232 -0.0208,12.25095 1.41684,13.77699 13.09847,13.90348 5.56437,0.0603 7.44565,-0.38038 9.22625,-2.16098 z m 32.08213,1.35804 c 2.56877,-1.63337 3.5583,-6.82055 3.25471,-17.06142 -0.37321,-12.58936 -1.0758,-13.37329 -11.98569,-13.37329 -10.61641,0 -11.04948,0.61429 -11.04948,15.67313 0,11.29637 0.17622,12.28181 2.48551,13.8993 2.61303,1.83023 14.81584,2.43864 17.29495,0.86228 z m 34.52456,-0.70781 c 1.87184,-1.36795 2.214,-3.21169 2.48426,-13.38618 0.401,-15.097 -0.50033,-16.34072 -11.84218,-16.34072 -11.5268,0 -11.95625,0.56245 -11.95625,15.65924 0,11.06372 0.24642,12.66057 2.17083,14.06726 2.91585,2.13144 16.22695,2.1317 19.14334,4e-4 z m 33.55001,9e-4 c 1.86187,-1.35987 2.2247,-3.25578 2.54937,-13.32105 0.34484,-10.69084 0.17062,-11.94343 -1.95709,-14.07113 -1.91123,-1.91124 -3.71919,-2.33562 -9.9502,-2.33562 -10.67715,0 -11.62677,0.93307 -12.27072,12.05694 -0.6807,11.7589 0.2892,16.85238 3.45161,18.12605 3.99691,1.60978 15.75286,1.31539 18.17703,-0.45519 z m 33.4043,-0.17184 c 1.97364,-1.97365 2.04496,-2.63671 1.7956,-16.69512 -0.13892,-7.83238 -0.58248,-10.3751 -1.99962,-11.46292 -2.73123,-2.09657 -16.45644,-1.83199 -18.64789,0.35946 -2.11189,2.11189 -2.15825,2.75209 -1.79891,24.83908 0.0539,3.31587 3.25383,4.55643 11.98373,4.64599 4.86512,0.0499 7.42972,-0.44912 8.66709,-1.68649 z m 32.72117,0.87875 c 2.63229,-1.67376 3.5948,-7.01651 3.10485,-17.23452 -0.59978,-12.50813 -1.2133,-13.20019 -11.70197,-13.20019 -10.58648,0 -11.62092,1.0429 -12.12886,12.22809 -0.54062,11.90445 0.39985,16.69683 3.5235,17.9549 3.03307,1.22159 15.39275,1.40244 17.20248,0.25172 z m 34.4921,-0.68498 c 1.81473,-1.32696 2.2041,-3.33952 2.57273,-13.29769 0.39844,-10.76376 0.23929,-11.92915 -1.92462,-14.09306 -1.93781,-1.93781 -3.71848,-2.35898 -9.97357,-2.35898 -11.06303,0 -11.86765,0.87078 -12.3484,13.36374 -0.46984,12.20934 0.21256,15.48558 3.50103,16.8088 3.99114,1.60596 15.7732,1.33185 18.17283,-0.42281 z m 33.43676,-0.19377 c 1.39195,-1.39196 1.75738,-4.40682 1.75738,-14.49899 0,-14.93561 -0.0923,-15.05697 -11.45524,-15.05697 -10.65105,0 -11.4469,0.93528 -11.58098,13.60987 -0.17934,16.95337 0.2155,17.50541 12.61175,17.63258 4.86512,0.0499 7.42972,-0.44912 8.66709,-1.68649 z m 34.22789,-0.50384 c 0.5749,-0.90912 1.05296,-7.29681 1.06238,-14.19486 0.0202,-14.80427 -0.0228,-14.85726 -12.07409,-14.85726 -10.49777,0 -10.79004,0.44368 -10.56049,16.03114 0.22479,15.26587 0.52049,15.62612 12.36309,15.06247 5.65314,-0.26906 8.48534,-0.8969 9.20911,-2.04149 z M 290.76675,352.83427 v -67.65918 h -89.46669 -89.46669 v 66.91362 c 0,36.80251 0.3355,67.24914 0.74556,67.65919 0.41005,0.41006 40.67006,0.74556 89.46669,0.74556 h 88.72113 z m 199.91088,-0.27958 0.28831,-67.3796 h -90.59375 -90.59376 v 66.91362 c 0,36.80251 0.33847,67.25212 0.75217,67.6658 0.41369,0.41369 41.05114,0.62338 90.30544,0.46598 l 89.55328,-0.2862 z m 196.82673,0 0.28831,-67.3796 h -89.47542 -89.47543 v 66.91362 c 0,36.80251 0.33851,67.25215 0.75225,67.66588 0.41373,0.41374 40.54793,0.62343 89.18711,0.46598 l 88.43486,-0.28628 z M 42.170921,268.40008 c 0.80639,-1.59769 1.418185,-6.93624 1.427606,-12.45736 0.02268,-13.29272 -1.317893,-14.94181 -12.146436,-14.94181 -11.308249,0 -11.931146,0.83902 -11.696298,15.75451 0.110234,7.00102 0.709373,12.3785 1.483035,13.3107 1.501684,1.80942 7.351626,2.48997 14.518161,1.68896 3.909624,-0.43698 5.311164,-1.1701 6.413932,-3.355 z m 32.455039,1.80405 c 0.801581,-0.74564 1.684938,-6.00699 2.117978,-12.61487 0.73856,-11.2699 0.72527,-11.35333 -2.288546,-14.36715 -2.79607,-2.79607 -3.591062,-2.99579 -10.239846,-2.57242 -10.53109,0.67057 -11.155329,1.60377 -10.834104,16.19641 0.143428,6.5156 0.810221,12.50047 1.483036,13.31116 2.182255,2.62946 16.947497,2.66448 19.761482,0.0469 z m 33.6071,-0.0571 c 0.87688,-0.81813 1.69857,-5.70879 2.11923,-12.6136 0.68093,-11.177 0.66005,-11.30439 -2.34563,-14.31007 -2.80838,-2.80839 -3.57583,-2.9981 -10.376587,-2.56506 -10.295751,0.65559 -11.51838,2.34058 -11.51838,15.87433 0,12.24382 1.304014,14.90749 7.565584,15.45399 6.159691,0.5376 12.924173,-0.3173 14.555783,-1.83958 z m 33.79532,-0.24305 c 1.20918,-1.13838 1.78268,-4.62274 2.05425,-12.48103 0.33076,-9.57041 0.10378,-11.23882 -1.85827,-13.6619 -1.99398,-2.46247 -3.08568,-2.76015 -10.12223,-2.76015 -11.2355,0 -11.88126,0.85009 -11.88126,15.64069 0,7.56283 0.47024,12.11688 1.34105,12.9877 3.14404,3.14403 17.21802,3.33293 20.46646,0.27469 z m 66.88691,0.20718 c 0.99981,-0.93178 1.532,-5.12811 1.6775,-13.22702 0.27046,-15.05453 -0.33833,-15.88324 -11.66815,-15.88324 -7.03435,0 -8.12863,0.29815 -10.11992,2.7573 -1.97063,2.43362 -2.18877,4.09682 -1.85828,14.16822 0.20595,6.27601 0.74633,11.78161 1.20085,12.23466 2.64145,2.63294 17.9287,2.59619 20.768,-0.0499 z m 33.76312,-0.20924 c 1.28269,-1.20917 1.6775,-4.325 1.6775,-13.2389 0,-14.80959 -0.64673,-15.66212 -11.88126,-15.66212 -10.93342,0 -12.16292,1.57357 -12.16292,15.56681 0,6.80059 0.5047,10.97674 1.48928,12.32323 2.75089,3.76208 17.21596,4.46254 20.8774,1.01098 z m 67.06884,0.21321 c 0.65312,-0.78695 1.30476,-6.75802 1.44808,-13.26904 0.32987,-14.98485 -0.29356,-15.84519 -11.48191,-15.84519 -11.20837,0 -11.78189,0.80776 -11.5915,16.32574 0.0831,6.76906 0.45494,12.61131 0.8264,12.98278 2.35477,2.35476 18.81098,2.20105 20.79893,-0.19429 z m 32.65248,0.37484 c 2.18451,-1.11613 3.77951,-12.64201 2.86826,-20.72663 -0.83364,-7.39603 -2.72726,-8.76244 -12.14331,-8.76244 -11.02304,0 -12.1689,1.51514 -12.14579,16.06014 0.009,5.92893 0.46989,11.49522 1.02327,12.36955 1.86224,2.9423 15.34206,3.64239 20.39757,1.05938 z m 95.72397,-0.32882 c 0.93362,-0.86784 1.50385,-5.36644 1.6775,-13.23401 0.33569,-15.20783 -0.20713,-15.92624 -12.03344,-15.92624 -11.06268,0 -11.67047,0.81368 -11.69494,15.65667 -0.0101,6.15083 0.42468,11.8831 0.96629,12.73836 2.04966,3.23673 17.81045,3.80873 21.08459,0.76522 z m 34.05272,-1.03668 c 0.73687,-1.34668 1.34141,-7.17324 1.37607,-13.26247 0.0792,-13.91191 -0.67573,-14.8611 -11.81943,-14.8611 -11.03336,0 -12.16292,1.50135 -12.16292,16.1664 0,12.31297 0.96582,14.13646 7.82833,14.77993 7.95701,0.74609 13.39338,-0.29232 14.77795,-2.82276 z m 66.8829,0.35192 c 0.60643,-1.13313 1.18452,-7.14738 1.28464,-13.365 0.22395,-13.90641 -0.39879,-14.80423 -10.72433,-15.46171 -6.56131,-0.4178 -7.46612,-0.20131 -10.07895,2.41153 -2.69402,2.69402 -2.86947,3.54411 -2.8534,13.82511 0.009,6.02502 0.46025,11.65435 1.00186,12.50961 2.26213,3.57225 19.46675,3.63703 21.37018,0.0805 z m 33.5256,0.0451 c 0.48777,-0.78923 1.22785,-5.07395 1.64463,-9.5216 0.99198,-10.58597 -0.65243,-16.99041 -4.77446,-18.59488 -4.46785,-1.73908 -16.01497,-0.46604 -17.78988,1.96129 -1.68198,2.30026 -2.01151,23.52545 -0.40465,26.06425 2.08015,3.28659 19.30393,3.36004 21.32436,0.0909 z m 67.1822,-0.0947 c 0.5521,-0.87226 1.01154,-6.64805 1.02095,-12.83509 0.0227,-14.90767 -0.48469,-15.59084 -11.57931,-15.59084 -5.40915,0 -8.9418,0.51904 -9.87557,1.451 -1.7479,1.74449 -2.63476,24.56512 -1.04711,26.94403 2.25438,3.37792 19.34697,3.4025 21.48104,0.0309 z m 33.16265,0.77147 c 1.35133,-1.35135 2.36336,-16.64673 1.43882,-21.74614 -1.11594,-6.15522 -2.03519,-7.01657 -8.23376,-7.71524 -7.28332,-0.82093 -12.75582,0.47101 -14.34916,3.38752 -1.60288,2.93395 -1.44157,24.19687 0.19598,25.83442 2.44322,2.44322 18.56012,2.62744 20.94812,0.23944 z m 67.11136,-0.008 c 0.47021,-0.46863 1.01422,-6.22135 1.20891,-12.78383 0.46771,-15.76531 0.0178,-16.40507 -11.53732,-16.40507 -11.34425,0 -11.7425,0.55497 -11.7425,16.36358 0,8.23212 0.4287,12.28688 1.35993,12.86241 3.65235,2.25727 18.43541,2.23082 20.71098,-0.0371 z m -564.60697,0.0615 c 0.69933,-0.84265 1.37409,-6.71901 1.53485,-13.36693 0.36326,-15.02175 -0.25825,-15.88349 -11.45563,-15.88349 -11.13664,0 -11.78601,0.88224 -11.57999,15.73285 0.10243,7.38513 0.66965,12.32525 1.53484,13.36774 1.84734,2.22591 18.14146,2.34821 19.96593,0.14987 z m 100.64812,0.002 c 0.69696,-0.83978 1.37334,-6.73378 1.53486,-13.37482 0.36539,-15.02342 -0.25095,-15.87784 -11.45373,-15.87784 -11.16388,0 -11.7425,0.80302 -11.7425,16.29657 0,9.71872 0.35231,12.52523 1.6775,13.36293 2.66158,1.6825 18.51781,1.35976 19.98387,-0.40675 z m 100.9086,-0.31156 c 1.04177,-1.25524 1.51395,-5.37048 1.53486,-13.37679 0.0384,-14.7021 -0.6181,-15.56431 -11.85105,-15.56431 -11.04833,0 -12.16292,1.49002 -12.16292,16.25985 0,13.99704 0.42011,14.49432 12.24462,14.49432 6.68551,0 9.08221,-0.42456 10.23449,-1.81298 z m 27.84442,-0.42091 c 0.69953,-1.30708 1.06384,-7.21766 0.87811,-14.24613 -0.31523,-11.92806 -0.33938,-12.02263 -3.45038,-13.51127 -2.03108,-0.97189 -4.7104,-1.23262 -7.61826,-0.74133 -5.74365,0.97038 -6.58299,3.10555 -6.58299,16.74646 0,12.76628 0.8327,13.98625 9.54637,13.98625 4.88456,0 6.25898,-0.42483 7.22715,-2.23389 z m 100.61218,0.0707 c 1.67822,-3.1358 1.48559,-23.80091 -0.24391,-26.16615 -1.74774,-2.39018 -8.1143,-3.48805 -14.59314,-2.51649 -6.4369,0.96537 -7.49028,3.33353 -7.49028,16.83945 0,13.46687 0.47546,14.00643 12.3422,14.00643 7.58287,0 8.99066,-0.30498 9.98513,-2.16314 z m 100.71705,-0.7054 c 0.59986,-1.57774 1.09065,-7.52056 1.09065,-13.20625 0,-13.92028 -0.60727,-14.67928 -11.74489,-14.67928 -11.27568,0 -11.74011,0.62466 -11.74011,15.79053 0,14.55773 0.33662,14.96364 12.40923,14.96364 8.51861,0 8.94055,-0.12122 9.98512,-2.86864 z m 99.4165,1.82807 c 1.16267,-0.73588 1.71522,-4.26268 2.05604,-13.1233 0.61384,-15.95893 0.17708,-16.5903 -11.47675,-16.5903 -11.34279,0 -11.74011,0.55414 -11.74011,16.37401 0,10.27958 0.28509,12.19841 1.95708,13.17225 2.4244,1.41209 17.03589,1.53941 19.20374,0.16734 z m 67.6833,-1.44493 c 1.2835,-1.83247 1.73641,-5.28497 1.72378,-13.14042 -0.009,-5.86021 -0.38685,-11.20864 -0.83875,-11.88542 -1.55474,-2.32844 -5.71742,-3.802 -10.74031,-3.802 -7.70433,0 -10.45667,1.48536 -11.81677,6.37716 -1.64906,5.93113 -0.34106,21.71872 1.95016,23.53827 1.04265,0.82801 5.06673,1.39791 9.87063,1.39791 7.11323,0 8.32437,-0.30557 9.85126,-2.4855 z"
       id="path12172" />
  </g>
</svg>
